<?xml version="1.0" encoding="UTF-8"?><svg xmlns="http://www.w3.org/2000/svg" xmlns:xlink="http://www.w3.org/1999/xlink" height="328.7" preserveAspectRatio="xMidYMid meet" version="1.0" viewBox="-5.8 -3.1 261.5 328.7" width="261.5" zoomAndPan="magnify"><defs><clipPath id="a"><path d="M 0 232 L 92 232 L 92 325.519531 L 0 325.519531 Z M 0 232"/></clipPath><clipPath id="b"><path d="M 177 47 L 255.71875 47 L 255.71875 100 L 177 100 Z M 177 47"/></clipPath></defs><g><g id="change1_1"><path d="M 1.902344 293.242188 C 0.671875 285.308594 1.402344 283.082031 5.605469 279.261719 C 3.757812 279.179688 4.921875 279.046875 4.09375 278.328125 C 2.296875 276.761719 -0.328125 270.589844 1.863281 264.816406 C 2.585938 265.863281 3.929688 266.574219 5.6875 266.632812 C 8.683594 266.726562 9.886719 265.339844 10.5625 262.429688 C 11.046875 260.347656 10.234375 260.535156 13.15625 258.828125 C 9.054688 258.820312 9.917969 258.445312 8.238281 259.316406 C 11.402344 252.679688 16.839844 249.089844 22.410156 248.992188 L 24.238281 249.125 C 20.097656 246.898438 18.9375 246.296875 15.753906 246.359375 C 20.574219 240.753906 28.496094 240.28125 34.933594 242.292969 C 34.273438 241.679688 34.058594 241.164062 33.394531 240.832031 C 35.972656 236.140625 41.15625 234.199219 45.609375 234.328125 C 46.050781 234.339844 45.523438 234.757812 45.382812 235.179688 C 44.1875 238.769531 49.007812 242.460938 53.449219 239.140625 C 55.003906 237.980469 56.421875 236.519531 56.203125 234.34375 L 56.160156 233.890625 C 60.25 235.683594 62.476562 238.605469 63.433594 242.65625 C 69.027344 241.609375 73.828125 243.605469 76.921875 247.148438 L 77.558594 247.878906 C 75.207031 247.117188 74.703125 247.011719 71.953125 247.976562 C 75.199219 253.234375 76.335938 254.839844 85.253906 255.335938 C 85.601562 255.355469 85.546875 255.289062 85.503906 255.636719 C 85.238281 257.898438 84.226562 258.640625 82.191406 260.460938 C 84.679688 261.738281 90.496094 269.421875 90.574219 277.773438 C 88.394531 276.050781 87.355469 276.054688 84.449219 276.214844 L 85.410156 276.425781 C 88.917969 280.273438 89.996094 287.253906 87.746094 293.398438 C 86.351562 291.550781 84.445312 290.535156 82.023438 290.289062 C 81.484375 290.234375 82.164062 289.691406 82.46875 289.230469 C 82.621094 288.996094 82.78125 288.769531 82.980469 288.515625 C 78.679688 292.125 79.792969 297.65625 82.832031 302.308594 C 81.359375 302.78125 80.628906 302.371094 76.65625 300.972656 C 77.664062 305.859375 76.292969 307.679688 73.425781 310.96875 C 73.488281 310.269531 73.5 308.777344 71.828125 308.023438 C 69.367188 306.90625 66.386719 310.625 66.523438 313.449219 C 66.597656 315.023438 67.617188 315.765625 68.296875 316.355469 C 67.601562 316.335938 66.992188 316.425781 66.417969 316.511719 C 65.160156 316.707031 64.070312 316.898438 62.609375 315.964844 C 61.15625 320.867188 56.925781 323.691406 51.1875 324.734375 C 52.445312 322.960938 53.257812 322.191406 52.996094 317.722656 C 50.488281 318.199219 45.0625 319.382812 44.953125 322.542969 L 44.941406 322.878906 C 41.300781 321.90625 38.738281 320.402344 38.046875 316.683594 C 37.097656 317.605469 35.445312 319.6875 31.710938 319.253906 C 29.421875 318.980469 26.585938 317.519531 25.371094 315.605469 C 27.453125 315.042969 28.578125 314.230469 28.472656 312.109375 C 25.246094 309.941406 22.714844 309.550781 19.4375 311.175781 C 18.859375 311.464844 17.882812 311.890625 17.988281 311.246094 C 18.914062 305.707031 18.222656 301.347656 13.140625 299.1875 C 11.375 302.144531 11.421875 302.289062 11.382812 303.890625 C 8.660156 301.742188 5.421875 299.875 5.117188 296.433594 C 4.933594 294.484375 4.667969 292.597656 5.503906 290.792969 C 2.625 291.769531 3.113281 291.972656 1.902344 293.242188" fill="#f8f8f8"/></g><g id="change2_1"><path d="M 82.1875 289.117188 C 83.339844 288.355469 85.734375 288.722656 86.945312 289.355469 C 87.511719 285.359375 85.992188 280.761719 83.542969 277.761719 C 82.28125 276.210938 80.917969 273.324219 80.917969 273.324219 C 85.898438 273.050781 86.105469 272.957031 87.785156 273.316406 C 85.628906 263.320312 78.164062 260.84375 78.164062 260.84375 C 79.757812 259.421875 79.746094 259.644531 78.570312 259.863281 C 78.015625 259.96875 77.203125 260.074219 76.175781 260.007812 L 72.257812 258.101562 L 78.753906 257.96875 C 73.246094 256.277344 69.695312 253.382812 65.664062 246.847656 C 64.597656 246.890625 64.300781 246.980469 59.703125 247.84375 C 58.625 243.28125 58.53125 242.589844 57.902344 241.378906 C 52.519531 247.945312 45.183594 244.898438 42.304688 238.777344 C 40.777344 239.519531 36.320312 241.140625 35.382812 242.84375 C 34.722656 242.230469 34.101562 241.894531 33.433594 241.5625 C 36.015625 236.867188 40.386719 234.605469 44.839844 234.730469 C 44.910156 234.730469 44.96875 234.730469 45.015625 234.730469 C 45.261719 234.730469 45.203125 234.726562 45.085938 235.082031 C 43.894531 238.675781 48.550781 243.148438 52.996094 239.824219 C 54.550781 238.664062 56.125 236.421875 55.910156 234.25 L 55.863281 233.792969 C 59.953125 235.589844 62.179688 238.511719 63.136719 242.5625 C 68.734375 241.515625 73.53125 243.511719 76.625 247.054688 L 77.265625 247.785156 C 74.910156 247.019531 74.40625 246.917969 71.65625 247.882812 C 74.902344 253.140625 76.042969 254.742188 84.957031 255.242188 C 85.308594 255.261719 85.25 255.191406 85.210938 255.542969 C 84.945312 257.808594 83.933594 258.546875 81.894531 260.367188 C 84.382812 261.644531 90.292969 268.664062 90.371094 277.015625 C 88.191406 275.296875 87.070312 275.117188 84.160156 275.277344 L 85.117188 276.328125 C 88.621094 280.179688 90.160156 286.234375 87.910156 292.382812 C 86.515625 290.535156 84.792969 289.796875 82.371094 289.550781 C 81.824219 289.492188 81.867188 289.601562 82.1875 289.117188" fill="#fff"/></g><g id="change2_2"><path d="M 6.832031 290.328125 C 3.957031 291.304688 3.824219 291.394531 2.613281 292.664062 C 1.382812 284.730469 2.796875 282.816406 7 279 C 5.148438 278.914062 4.628906 278.953125 3.796875 278.234375 C 2 276.667969 -0.0234375 271.539062 2.167969 265.769531 C 2.894531 266.816406 3.679688 267.605469 5.433594 267.660156 C 8.429688 267.753906 9.886719 265.339844 10.5625 262.429688 C 11.046875 260.347656 11.316406 260.4375 14.234375 258.730469 C 10.132812 258.722656 10.382812 258.695312 8.703125 259.566406 C 11.867188 252.925781 17.535156 249.652344 23.105469 249.558594 L 25.585938 249.515625 C 21.445312 247.292969 19.488281 246.832031 16.304688 246.894531 C 22.375 239.832031 33.261719 241.449219 36.273438 243.425781 C 34.691406 242.933594 29.203125 243.230469 24.480469 245.027344 C 28.886719 245.675781 33.582031 250.371094 33.582031 250.371094 C 26.472656 249.878906 18.828125 251.847656 15.503906 255.632812 C 15.503906 255.632812 17.320312 254.980469 24.359375 258.089844 C 14.085938 262.21875 14.976562 263.566406 14.976562 263.566406 C 13.820312 268.425781 9.441406 273.410156 3.351562 270.214844 C 3.804688 273.269531 6.664062 275.289062 9.644531 274.796875 C 12.527344 274.316406 15.542969 273.8125 15.542969 273.8125 C 7.605469 280.800781 5.625 284.828125 4.914062 287.035156 C 4.539062 287.667969 4.328125 288.3125 4.335938 288.953125 C 5.046875 288.683594 5.382812 288.574219 10.851562 286.722656 C 8.027344 292.808594 7.550781 293.457031 7.71875 295.207031 C 7.851562 296.746094 8.605469 298.296875 9.960938 299.84375 C 10.382812 299.050781 10.914062 298.175781 11.972656 296.410156 L 13.675781 297.132812 C 17.222656 298.640625 21.132812 301.757812 21.117188 308.171875 C 25.214844 307.335938 28.355469 308.617188 31.578125 310.785156 C 31.65625 312.328125 31.921875 314.574219 29.78125 316.230469 C 33.28125 319.085938 37.15625 314.347656 40.335938 311.257812 C 41.152344 315.632812 41.378906 318.445312 43.363281 319.898438 C 45.652344 316.597656 51.824219 315.671875 55.574219 314.957031 C 55.816406 319.078125 55.863281 319.753906 55.875 320.558594 C 59.859375 318.527344 60.574219 314.800781 61.585938 311.382812 L 64.101562 312.996094 C 64.332031 308.507812 70.664062 301.707031 74.78125 305.292969 C 75.214844 303.273438 74.625 301.09375 73.765625 296.910156 C 77.8125 298.339844 78.1875 298.472656 78.851562 298.699219 C 78.082031 296.855469 77.921875 296.59375 77.777344 295.878906 C 76.742188 290.875 79.96875 285.800781 84.441406 286.886719 C 82.640625 288.457031 81.984375 289.3125 82.683594 288.421875 C 78.382812 292.03125 79.632812 296.65625 82.667969 301.3125 C 81.199219 301.785156 80.578125 301.566406 76.605469 300.167969 C 77.613281 305.058594 76.984375 307.269531 74.117188 310.558594 C 74.179688 309.855469 74.554688 307.339844 72.882812 306.582031 C 70.421875 305.464844 66.089844 310.527344 66.226562 313.355469 C 66.300781 314.929688 67.324219 315.671875 68 316.261719 C 65.792969 316.199219 64.945312 316.058594 62.820312 314.699219 C 61.367188 319.601562 57.996094 322.925781 52.257812 323.96875 C 53.515625 322.195312 53.347656 322.023438 53.085938 317.558594 C 50.582031 318.03125 44.769531 319.285156 44.65625 322.449219 L 44.644531 322.785156 C 41.003906 321.8125 39.664062 319.265625 38.972656 315.550781 C 38.023438 316.46875 35.148438 319.59375 31.417969 319.15625 C 29.125 318.886719 27.613281 317.378906 26.402344 315.464844 C 28.480469 314.902344 29.613281 314.074219 29.507812 311.957031 C 26.28125 309.785156 22.417969 309.457031 19.140625 311.082031 C 18.5625 311.367188 18.648438 311.441406 18.757812 310.796875 C 19.679688 305.261719 17.929688 301.25 12.84375 299.09375 C 11.078125 302.046875 11.128906 302.191406 11.085938 303.792969 C 8.363281 301.644531 5.90625 298.84375 5.597656 295.402344 C 5.414062 293.453125 5.996094 292.132812 6.832031 290.328125" fill="#fff"/></g><g id="change3_1"><path d="M 55.875 320.558594 C 55.863281 319.761719 55.820312 319.089844 55.582031 315.054688 C 55.578125 315.023438 55.578125 314.992188 55.574219 314.957031 C 51.824219 315.671875 45.652344 316.597656 43.363281 319.898438 C 41.378906 318.445312 41.152344 315.632812 40.335938 311.257812 C 40.265625 311.324219 40.199219 311.394531 40.128906 311.460938 C 37.683594 313.863281 34.851562 317.105469 32.101562 317.109375 C 32.101562 317.109375 32.097656 317.109375 32.097656 317.109375 C 31.328125 317.109375 30.5625 316.855469 29.816406 316.257812 C 29.804688 316.246094 29.792969 316.238281 29.78125 316.230469 C 31.367188 315.003906 31.632812 313.457031 31.632812 312.109375 C 31.632812 311.636719 31.597656 311.1875 31.578125 310.785156 C 31.574219 310.785156 31.570312 310.78125 31.5625 310.777344 C 31.558594 310.773438 31.550781 310.769531 31.546875 310.765625 C 31.515625 310.742188 31.480469 310.722656 31.449219 310.699219 C 31.441406 310.695312 31.433594 310.6875 31.425781 310.683594 C 31.417969 310.679688 31.414062 310.675781 31.40625 310.671875 C 28.921875 309.023438 26.476562 307.917969 23.589844 307.914062 C 23.589844 307.914062 23.589844 307.914062 23.585938 307.914062 C 22.824219 307.914062 22.035156 307.992188 21.207031 308.15625 C 21.175781 308.160156 21.148438 308.167969 21.117188 308.171875 C 21.132812 301.84375 17.328125 298.726562 13.824219 297.195312 C 13.773438 297.175781 13.726562 297.152344 13.675781 297.132812 L 11.972656 296.410156 C 10.914062 298.175781 10.382812 299.050781 9.960938 299.84375 C 8.605469 298.296875 7.851562 296.746094 7.71875 295.207031 C 7.699219 295.007812 7.6875 294.824219 7.6875 294.648438 C 7.6875 293.242188 8.34375 292.125 10.851562 286.722656 C 5.382812 288.574219 5.046875 288.683594 4.335938 288.953125 C 4.335938 288.949219 4.335938 288.945312 4.335938 288.941406 C 4.335938 288.941406 4.335938 288.9375 4.335938 288.933594 C 4.335938 288.90625 4.335938 288.882812 4.339844 288.855469 C 4.339844 288.851562 4.339844 288.847656 4.339844 288.84375 C 4.339844 288.839844 4.339844 288.839844 4.339844 288.835938 C 4.339844 288.835938 4.339844 288.832031 4.339844 288.832031 C 4.355469 288.230469 4.5625 287.625 4.914062 287.035156 C 4.917969 287.03125 4.917969 287.027344 4.921875 287.019531 C 6.503906 284.398438 11.066406 282.113281 15.574219 282.113281 C 16.277344 282.113281 16.980469 282.171875 17.667969 282.289062 C 13.628906 284.644531 11.28125 289.605469 12.023438 294.222656 C 12.796875 293.671875 13.875 293.3125 15.066406 293.3125 C 17.96875 293.3125 21.570312 295.425781 23.242188 302 C 24.601562 300.289062 26.785156 299.414062 28.960938 299.414062 C 30.914062 299.414062 32.863281 300.117188 34.207031 301.550781 C 37.046875 304.574219 36.46875 310.09375 33.0625 312.464844 C 39.054688 311.070312 44.378906 307.042969 47.347656 301.652344 C 47.90625 304.851562 47.386719 308.226562 45.898438 311.109375 C 52.96875 309.023438 58.351562 302.160156 58.695312 294.796875 C 59.84375 298.855469 61.179688 302.859375 62.691406 306.796875 C 61.65625 299.898438 63.824219 292.589844 68.449219 287.367188 C 67.484375 291.707031 68.921875 296.5 72.113281 299.59375 C 72.402344 297.148438 71.851562 294.605469 70.578125 292.5 C 72.777344 292.625 74.914062 293.535156 76.273438 294.6875 C 74.355469 289.527344 76.410156 283.480469 78.296875 279.425781 C 79.320312 280.386719 80.34375 281.347656 81.363281 282.304688 C 81.695312 277.464844 79.394531 272.519531 75.476562 269.652344 C 76.667969 269.28125 77.914062 269.097656 79.164062 269.097656 C 81.011719 269.097656 82.863281 269.5 84.53125 270.296875 C 82.925781 266.097656 79.953125 262.4375 76.175781 260.007812 C 76.183594 260.007812 76.191406 260.007812 76.199219 260.007812 C 76.414062 260.019531 76.621094 260.027344 76.820312 260.027344 C 76.824219 260.027344 76.824219 260.027344 76.824219 260.027344 C 77.507812 260.027344 78.066406 259.957031 78.492188 259.878906 C 78.496094 259.878906 78.503906 259.878906 78.511719 259.875 C 78.53125 259.871094 78.550781 259.867188 78.570312 259.863281 C 79 259.785156 79.277344 259.703125 79.371094 259.703125 C 79.53125 259.703125 79.195312 259.929688 78.261719 260.757812 C 78.257812 260.761719 78.257812 260.761719 78.257812 260.761719 C 78.25 260.765625 78.246094 260.769531 78.242188 260.777344 C 78.234375 260.78125 78.230469 260.785156 78.226562 260.789062 C 78.226562 260.789062 78.222656 260.792969 78.222656 260.792969 C 78.203125 260.808594 78.183594 260.824219 78.164062 260.84375 C 78.164062 260.84375 85.628906 263.320312 87.785156 273.316406 C 87.78125 273.316406 87.777344 273.316406 87.773438 273.316406 C 87.765625 273.3125 87.757812 273.3125 87.75 273.3125 C 86.996094 273.148438 86.539062 273.082031 85.792969 273.082031 C 85.730469 273.082031 85.667969 273.082031 85.601562 273.082031 C 85.5 273.085938 85.390625 273.085938 85.277344 273.089844 C 85.269531 273.089844 85.265625 273.089844 85.261719 273.089844 C 84.921875 273.101562 84.523438 273.121094 84.039062 273.148438 C 84.035156 273.148438 84.03125 273.148438 84.027344 273.148438 C 83.972656 273.152344 83.914062 273.152344 83.851562 273.15625 C 83.851562 273.15625 83.847656 273.15625 83.84375 273.15625 C 83.84375 273.15625 83.84375 273.15625 83.839844 273.15625 C 83.800781 273.160156 83.761719 273.164062 83.71875 273.164062 C 83.71875 273.164062 83.714844 273.164062 83.710938 273.164062 C 83.710938 273.164062 83.710938 273.164062 83.710938 273.167969 C 83.320312 273.1875 82.878906 273.214844 82.375 273.242188 C 82.351562 273.242188 82.332031 273.246094 82.308594 273.246094 C 82.296875 273.246094 82.285156 273.25 82.273438 273.25 C 82.257812 273.25 82.246094 273.25 82.234375 273.25 C 82.078125 273.257812 81.917969 273.269531 81.753906 273.277344 C 81.746094 273.277344 81.742188 273.277344 81.734375 273.277344 C 81.71875 273.28125 81.699219 273.28125 81.683594 273.28125 C 81.683594 273.28125 81.683594 273.28125 81.679688 273.28125 C 81.636719 273.285156 81.59375 273.285156 81.550781 273.289062 C 81.511719 273.292969 81.476562 273.292969 81.441406 273.296875 C 81.433594 273.296875 81.425781 273.296875 81.421875 273.296875 C 81.292969 273.304688 81.164062 273.3125 81.03125 273.316406 C 81.027344 273.316406 81.027344 273.316406 81.023438 273.320312 C 80.988281 273.320312 80.953125 273.320312 80.917969 273.324219 C 80.917969 273.324219 82.28125 276.210938 83.542969 277.761719 C 85.644531 280.335938 87.058594 284.082031 87.0625 287.617188 C 87.0625 288.207031 87.023438 288.789062 86.945312 289.355469 C 86.214844 288.972656 85.050781 288.6875 83.992188 288.6875 C 83.609375 288.6875 83.238281 288.722656 82.90625 288.808594 C 83.246094 288.394531 83.695312 287.910156 84.375 287.238281 C 84.03125 287.429688 83.707031 287.628906 83.402344 287.832031 C 83.949219 287.320312 84.410156 286.917969 84.441406 286.890625 C 84.441406 286.886719 84.441406 286.886719 84.441406 286.886719 C 84.03125 286.785156 83.625 286.738281 83.234375 286.738281 C 83.234375 286.738281 83.234375 286.738281 83.230469 286.738281 C 79.425781 286.742188 76.867188 291.285156 77.761719 295.804688 C 77.761719 295.8125 77.765625 295.824219 77.765625 295.835938 C 77.769531 295.84375 77.769531 295.851562 77.773438 295.859375 C 77.773438 295.867188 77.773438 295.871094 77.777344 295.878906 C 77.921875 296.59375 78.082031 296.855469 78.851562 298.699219 C 78.1875 298.472656 77.8125 298.339844 73.765625 296.910156 C 74.425781 300.121094 74.925781 302.152344 74.925781 303.835938 C 74.925781 304.34375 74.882812 304.824219 74.78125 305.292969 C 74.773438 305.285156 74.765625 305.277344 74.757812 305.273438 C 74.753906 305.269531 74.75 305.265625 74.746094 305.261719 C 74.742188 305.261719 74.738281 305.257812 74.734375 305.253906 C 74.734375 305.253906 74.734375 305.25 74.734375 305.25 C 73.9375 304.578125 73.0625 304.285156 72.167969 304.285156 C 72.164062 304.285156 72.160156 304.285156 72.15625 304.285156 C 68.429688 304.292969 64.339844 309.332031 64.105469 312.929688 C 64.105469 312.9375 64.105469 312.949219 64.105469 312.957031 C 64.105469 312.96875 64.105469 312.984375 64.101562 312.996094 L 61.585938 311.382812 C 60.574219 314.800781 59.859375 318.527344 55.875 320.558594" fill="#dbdbdb"/></g><g id="change4_1"><path d="M 86.945312 289.355469 C 87.023438 288.789062 87.0625 288.207031 87.0625 287.617188 C 87.0625 288.207031 87.023438 288.789062 86.945312 289.355469 M 80.917969 273.324219 L 80.917969 273.324219 M 81.023438 273.320312 C 81.027344 273.316406 81.027344 273.316406 81.03125 273.316406 C 81.027344 273.316406 81.027344 273.316406 81.023438 273.320312 M 87.785156 273.316406 C 87.78125 273.316406 87.777344 273.316406 87.773438 273.316406 C 87.777344 273.316406 87.78125 273.316406 87.785156 273.316406 M 87.75 273.3125 C 86.996094 273.148438 86.539062 273.082031 85.792969 273.082031 C 86.539062 273.082031 86.996094 273.148438 87.75 273.3125 M 81.421875 273.296875 C 81.425781 273.296875 81.433594 273.296875 81.441406 273.296875 C 81.433594 273.296875 81.425781 273.296875 81.421875 273.296875 M 81.550781 273.289062 C 81.59375 273.285156 81.636719 273.285156 81.679688 273.28125 C 81.636719 273.285156 81.59375 273.285156 81.550781 273.289062 M 81.683594 273.28125 C 81.699219 273.28125 81.71875 273.28125 81.734375 273.277344 C 81.71875 273.28125 81.699219 273.28125 81.683594 273.28125 M 81.753906 273.277344 C 81.917969 273.269531 82.078125 273.257812 82.234375 273.25 C 82.078125 273.257812 81.917969 273.269531 81.753906 273.277344 M 82.273438 273.25 C 82.285156 273.25 82.296875 273.246094 82.308594 273.246094 C 82.296875 273.246094 82.285156 273.25 82.273438 273.25 M 82.375 273.242188 C 82.878906 273.214844 83.320312 273.1875 83.710938 273.167969 C 83.320312 273.1875 82.878906 273.214844 82.375 273.242188 M 83.710938 273.167969 C 83.710938 273.164062 83.710938 273.164062 83.710938 273.164062 C 83.710938 273.164062 83.710938 273.164062 83.710938 273.167969 M 83.71875 273.164062 C 83.761719 273.164062 83.800781 273.160156 83.839844 273.15625 C 83.800781 273.160156 83.761719 273.164062 83.71875 273.164062 M 83.84375 273.15625 C 83.847656 273.15625 83.851562 273.15625 83.851562 273.15625 C 83.851562 273.15625 83.847656 273.15625 83.84375 273.15625 M 84.027344 273.148438 C 84.03125 273.148438 84.035156 273.148438 84.039062 273.148438 C 84.035156 273.148438 84.03125 273.148438 84.027344 273.148438 M 85.261719 273.089844 C 85.265625 273.089844 85.269531 273.089844 85.277344 273.089844 C 85.269531 273.089844 85.265625 273.089844 85.261719 273.089844 M 85.601562 273.082031 C 85.667969 273.082031 85.730469 273.082031 85.792969 273.082031 C 85.730469 273.082031 85.667969 273.082031 85.601562 273.082031 M 78.164062 260.84375 L 78.164062 260.84375 M 78.222656 260.792969 C 78.222656 260.792969 78.226562 260.789062 78.226562 260.789062 C 78.226562 260.789062 78.222656 260.792969 78.222656 260.792969 M 78.242188 260.777344 C 78.246094 260.769531 78.25 260.765625 78.257812 260.761719 C 78.25 260.765625 78.246094 260.769531 78.242188 260.777344 M 78.261719 260.757812 C 79.195312 259.929688 79.53125 259.703125 79.371094 259.703125 C 79.535156 259.703125 79.195312 259.929688 78.261719 260.757812 M 76.820312 260.027344 C 76.824219 260.027344 76.824219 260.027344 76.824219 260.027344 C 76.824219 260.027344 76.824219 260.027344 76.820312 260.027344 M 76.820312 260.027344 C 76.621094 260.027344 76.414062 260.019531 76.199219 260.007812 C 76.414062 260.019531 76.621094 260.027344 76.820312 260.027344 M 78.492188 259.878906 C 78.496094 259.878906 78.503906 259.878906 78.511719 259.875 C 78.503906 259.878906 78.496094 259.878906 78.492188 259.878906 M 78.570312 259.863281 C 79 259.785156 79.277344 259.703125 79.371094 259.703125 C 79.277344 259.703125 79 259.785156 78.570312 259.863281" fill="#e1e1e1"/></g><g id="change4_2"><path d="M 55.875 320.558594 C 59.859375 318.527344 60.574219 314.800781 61.585938 311.382812 L 64.101562 312.996094 L 61.585938 311.382812 C 60.574219 314.800781 59.859375 318.527344 55.875 320.558594 M 43.363281 319.898438 C 41.378906 318.445312 41.152344 315.632812 40.335938 311.257812 C 40.265625 311.324219 40.199219 311.394531 40.128906 311.460938 C 40.199219 311.394531 40.265625 311.324219 40.335938 311.257812 C 41.152344 315.632812 41.378906 318.445312 43.363281 319.898438 C 45.652344 316.597656 51.824219 315.671875 55.574219 314.957031 C 55.578125 314.992188 55.578125 315.023438 55.582031 315.054688 C 55.578125 315.023438 55.578125 314.992188 55.574219 314.957031 C 51.824219 315.671875 45.652344 316.597656 43.363281 319.898438 M 32.097656 317.109375 C 32.097656 317.109375 32.101562 317.109375 32.101562 317.109375 C 32.101562 317.109375 32.097656 317.109375 32.097656 317.109375 M 32.097656 317.109375 C 31.328125 317.109375 30.5625 316.855469 29.816406 316.257812 C 30.5625 316.855469 31.328125 317.109375 32.097656 317.109375 M 29.78125 316.230469 L 29.78125 316.230469 M 64.105469 312.957031 C 64.105469 312.949219 64.105469 312.9375 64.105469 312.929688 C 64.105469 312.9375 64.105469 312.949219 64.105469 312.957031 M 31.632812 312.109375 C 31.632812 311.636719 31.597656 311.1875 31.578125 310.785156 C 31.597656 311.1875 31.632812 311.636719 31.632812 312.109375 M 31.5625 310.777344 C 31.558594 310.773438 31.550781 310.769531 31.546875 310.765625 C 31.550781 310.769531 31.558594 310.773438 31.5625 310.777344 M 31.449219 310.699219 C 31.441406 310.695312 31.433594 310.6875 31.425781 310.683594 C 31.433594 310.6875 31.441406 310.695312 31.449219 310.699219 M 31.40625 310.671875 C 28.921875 309.023438 26.476562 307.917969 23.589844 307.914062 C 26.476562 307.917969 28.921875 309.023438 31.40625 310.671875 M 21.117188 308.171875 C 21.148438 308.167969 21.175781 308.160156 21.207031 308.15625 C 21.175781 308.160156 21.148438 308.167969 21.117188 308.171875 M 23.585938 307.914062 L 23.585938 307.914062 M 74.78125 305.292969 C 74.773438 305.285156 74.765625 305.277344 74.757812 305.273438 C 74.765625 305.277344 74.773438 305.285156 74.78125 305.292969 C 74.882812 304.824219 74.925781 304.34375 74.925781 303.835938 C 74.925781 304.34375 74.882812 304.824219 74.78125 305.292969 M 74.746094 305.261719 C 74.742188 305.261719 74.738281 305.257812 74.734375 305.253906 C 74.738281 305.257812 74.742188 305.261719 74.746094 305.261719 M 74.734375 305.25 C 73.9375 304.578125 73.0625 304.285156 72.167969 304.285156 C 73.0625 304.285156 73.9375 304.578125 74.734375 305.25 M 72.15625 304.285156 C 72.160156 304.285156 72.164062 304.285156 72.167969 304.285156 C 72.164062 304.285156 72.160156 304.285156 72.15625 304.285156 M 9.960938 299.84375 C 8.605469 298.296875 7.851562 296.746094 7.71875 295.207031 C 7.699219 295.007812 7.6875 294.824219 7.6875 294.648438 C 7.6875 294.824219 7.699219 295.007812 7.71875 295.207031 C 7.851562 296.746094 8.605469 298.296875 9.960938 299.84375 C 10.382812 299.050781 10.914062 298.175781 11.972656 296.410156 L 13.675781 297.132812 C 13.726562 297.152344 13.773438 297.175781 13.824219 297.195312 C 13.773438 297.175781 13.726562 297.152344 13.675781 297.132812 L 11.972656 296.410156 C 10.914062 298.175781 10.382812 299.050781 9.960938 299.84375 M 78.851562 298.699219 C 78.1875 298.472656 77.8125 298.339844 73.765625 296.910156 C 77.8125 298.339844 78.1875 298.472656 78.851562 298.699219 M 77.777344 295.878906 C 77.773438 295.871094 77.773438 295.867188 77.773438 295.859375 C 77.773438 295.867188 77.773438 295.871094 77.777344 295.878906 M 77.765625 295.835938 C 77.765625 295.824219 77.761719 295.8125 77.761719 295.804688 C 77.761719 295.8125 77.765625 295.824219 77.765625 295.835938 M 4.335938 288.953125 C 4.335938 288.949219 4.335938 288.945312 4.335938 288.941406 C 4.335938 288.945312 4.335938 288.949219 4.335938 288.953125 C 5.046875 288.683594 5.382812 288.574219 10.851562 286.722656 C 5.382812 288.574219 5.046875 288.683594 4.335938 288.953125 M 4.335938 288.933594 L 4.335938 288.933594 M 4.339844 288.855469 L 4.339844 288.855469 M 4.339844 288.84375 C 4.339844 288.839844 4.339844 288.839844 4.339844 288.835938 C 4.339844 288.839844 4.339844 288.839844 4.339844 288.84375 M 4.339844 288.832031 C 4.355469 288.226562 4.5625 287.613281 4.921875 287.019531 C 4.917969 287.027344 4.917969 287.03125 4.914062 287.035156 C 4.5625 287.625 4.355469 288.230469 4.339844 288.832031 M 84.441406 286.890625 L 84.441406 286.890625 M 84.441406 286.890625 C 84.441406 286.886719 84.441406 286.886719 84.441406 286.886719 C 84.441406 286.886719 84.441406 286.886719 84.441406 286.890625 M 84.441406 286.886719 C 84.03125 286.785156 83.625 286.738281 83.234375 286.738281 C 83.625 286.738281 84.03125 286.785156 84.441406 286.886719 M 83.230469 286.738281 C 83.234375 286.738281 83.234375 286.738281 83.234375 286.738281 C 83.234375 286.738281 83.234375 286.738281 83.230469 286.738281" fill="#e1e1e1"/></g><g id="change2_3"><path d="M 24.28125 278.207031 C 22.453125 275.539062 20.507812 278.386719 19.25 278.503906 C 18.34375 275.917969 19.722656 271.582031 24.539062 270.65625 C 23.140625 267.390625 21.675781 267.339844 18.207031 268.113281 C 19.949219 264.214844 25.089844 259.015625 29.058594 258.183594 C 27.210938 257.113281 25.257812 256.222656 23.234375 255.535156 C 28.726562 251.457031 35.949219 250.902344 38.523438 252.421875 C 38.132812 250.582031 36.917969 249.089844 35.078125 247.613281 C 37.644531 247.398438 40.355469 247.65625 41.941406 249.09375 C 40.414062 247.730469 40.28125 245.324219 40.625 243.921875 C 45.78125 249.035156 50.363281 249.542969 57.351562 247.660156 C 57.367188 249.535156 56.847656 250.507812 56.164062 251.132812 C 59.710938 250.730469 65.566406 252.125 68.496094 256.113281 C 66.855469 255.6875 65.085938 255.851562 63.519531 256.496094 C 67.535156 256.265625 74.523438 260.050781 76.429688 265.480469 C 71.960938 263.199219 73.097656 264.722656 69.15625 265.078125 C 74.738281 266.5 80.117188 278.433594 72.605469 284.644531 C 71.339844 281.03125 70.304688 278.859375 65.714844 279.6875 C 64.011719 281.238281 62.152344 286.445312 61.621094 290.726562 C 59.957031 289.085938 58.886719 288.429688 57.996094 287.199219 C 57.054688 290.246094 56.097656 290.304688 49.6875 292.683594 C 50.484375 291.640625 49.480469 291.484375 49.601562 289.492188 C 47.246094 291.96875 42.527344 293.339844 40.269531 293.859375 C 42.0625 289.347656 34.695312 286.566406 32.128906 291.019531 C 30.734375 282.910156 26.917969 281.902344 22.035156 286.070312 C 20.375 283.304688 21.386719 280.285156 24.28125 278.207031" fill="#fff"/></g><g clip-path="url(#a)" id="change5_3"><path d="M 74.183594 310.023438 C 74.496094 306.765625 71.945312 304.609375 68.257812 308.394531 C 64.746094 312.027344 65.285156 314.710938 66.929688 316.167969 C 64.675781 316.082031 63.46875 315.152344 62.347656 314.433594 C 61.5 317.308594 60.464844 319.5625 57.550781 321.566406 C 56.15625 322.53125 54.546875 323.195312 52.890625 323.484375 C 53.886719 322.101562 53.683594 320.980469 53.503906 317.25 C 50.3125 317.820312 44.148438 319.117188 44 322.425781 C 39.632812 321.214844 39.113281 316.472656 38.820312 314.945312 L 37.679688 316.035156 C 34.074219 319.472656 29.429688 320.167969 26.496094 315.457031 C 27.519531 315.191406 28.484375 314.695312 29.050781 313.808594 C 29.570312 313 29.496094 312.226562 29.476562 311.664062 C 25.972656 309.203125 21.910156 309.0625 18.738281 310.597656 C 19.804688 304.550781 17.492188 300.605469 13.289062 298.769531 L 12.5625 298.453125 C 11.019531 300.976562 10.664062 301.628906 10.621094 302.933594 C 8.171875 300.96875 5.972656 298.121094 5.722656 295.015625 C 5.542969 292.867188 6.304688 291.574219 7.238281 289.527344 C 4.683594 290.378906 3.785156 290.5625 2.683594 291.695312 C 1.511719 283.714844 3.667969 281.984375 7.667969 278.414062 C 5.226562 278.273438 4.800781 278.367188 3.988281 277.652344 C 2.058594 275.9375 0.546875 270.597656 2.359375 265.945312 C 3.824219 268.109375 7.550781 268.054688 9.136719 266.074219 C 11.742188 262.726562 10.347656 261.089844 12.425781 259.898438 L 15.417969 258.1875 C 11.425781 258.160156 10.648438 258.035156 9.476562 258.628906 C 12.164062 253.121094 17.871094 249.667969 23.382812 249.621094 L 26.878906 249.59375 C 23.675781 247.796875 20.867188 246.3125 17.199219 246.355469 C 22.097656 240.757812 31.078125 241.269531 36.601562 243.34375 C 35.953125 242.464844 35.089844 241.816406 34.152344 241.339844 C 36.3125 237.488281 40.507812 234.8125 45.238281 234.992188 C 43.929688 238.816406 48.828125 243.542969 53.515625 240.109375 C 55.289062 238.808594 56.78125 236.484375 56.589844 234.320312 C 59.789062 235.761719 62.292969 238.730469 63.074219 242.164062 L 63.269531 243.027344 L 64.140625 242.875 C 68.769531 242.050781 73.683594 243.972656 76.71875 247.511719 C 74.582031 246.796875 73.160156 247.421875 71.542969 247.972656 C 75.003906 253.699219 76.097656 255.277344 85.160156 255.867188 C 84.875 258.125 83.832031 258.773438 81.574219 260.773438 C 83.808594 261.492188 90.121094 269.132812 90.125 276.859375 C 87.828125 275.011719 85.757812 275.3125 83.621094 275.382812 L 84.945312 276.863281 C 88.589844 280.941406 89.632812 287.113281 87.714844 292.210938 C 86.550781 290.636719 84.453125 289.851562 82.308594 289.613281 C 82.734375 288.980469 83.214844 288.382812 84.375 287.238281 C 78.394531 290.585938 78.304688 295.632812 82.054688 301.492188 C 80.832031 301.875 79.175781 301.152344 76.070312 300.035156 C 76.472656 302.308594 77.621094 306.144531 74.183594 310.023438 M 81.027344 303.773438 C 82.59375 303.957031 83.894531 303.304688 84.605469 302.191406 C 84.792969 301.898438 84.746094 301.511719 84.539062 301.230469 C 82.472656 298.390625 79.949219 295.109375 81.355469 291.402344 C 83.839844 291.511719 86.425781 292.402344 86.753906 294.644531 L 87.152344 297.363281 L 88.484375 294.960938 C 91.488281 289.5625 91 282.769531 87.980469 277.855469 L 88.128906 277.769531 C 89.84375 278.683594 90.285156 277.15625 91.917969 280.257812 C 92.335938 272.332031 89.554688 264.832031 88.003906 263.203125 C 87.589844 262.773438 85.378906 260.546875 84.972656 260.21875 C 87.066406 258.15625 87.058594 256.097656 87.105469 254.113281 C 78.480469 253.640625 76.871094 253 74.394531 249.074219 C 75.433594 248.941406 78.035156 248.515625 79.90625 248.929688 C 79.011719 247.277344 77.105469 241.984375 70.933594 240.980469 C 68.632812 240.636719 65.292969 240.847656 64.664062 240.917969 C 63.351562 236.570312 58.75 233.164062 54.335938 232.058594 C 55.214844 233.160156 55.195312 236.527344 52.460938 238.574219 C 51.253906 239.90625 49.203125 239.839844 48.398438 238.753906 C 47.070312 237.570312 46.550781 235.089844 47.675781 233.898438 C 41.480469 232.933594 35.082031 235.664062 32.410156 240.65625 C 26.929688 239.070312 16.972656 241.070312 14.125 248.667969 C 14.125 248.667969 17.0625 247.355469 19.003906 248.359375 C 16.699219 249.023438 14.535156 250.167969 12.679688 251.660156 C 7.28125 255.988281 7.519531 257.992188 7.839844 260.515625 C 8.960938 259.800781 9.632812 259.835938 10.707031 260.003906 C 8.539062 261.695312 8.613281 267.152344 4.050781 265.3125 C 3.007812 264.890625 2.65625 263.597656 2.476562 262.773438 C -1.855469 269.976562 0.152344 277.773438 3.492188 279.667969 C -0.863281 284.449219 0.308594 289.355469 1.480469 296.480469 L 2.917969 294.535156 C 4.917969 291.828125 2.429688 294.546875 5.109375 299.476562 C 7.296875 303.5 10.863281 305.546875 12.953125 306.898438 C 12.449219 302.570312 12.328125 302.714844 13.355469 300.957031 C 18.191406 303.414062 17.902344 308.433594 16.710938 313.414062 C 18.363281 312.390625 20.148438 311.046875 23.191406 311.25 C 24.707031 311.347656 26.222656 311.828125 27.472656 312.628906 C 26.996094 313.796875 24.460938 313.765625 23.4375 313.824219 C 24.332031 315.621094 25.082031 317.3125 26.726562 318.796875 C 29.6875 321.527344 33.886719 321.355469 37.667969 318.585938 C 39.5625 323.878906 43.269531 323.855469 45.53125 323.832031 C 45.914062 323.824219 46.257812 323.820312 46.539062 323.84375 C 44.339844 319.667969 49.863281 319.964844 51.6875 319.558594 C 51.847656 322.722656 51.847656 322.722656 49.6875 325.488281 C 55.21875 325.890625 61.320312 322.410156 63.421875 317.253906 C 64.707031 317.835938 68.054688 317.640625 69.855469 317.496094 C 68.621094 314.800781 68.054688 311.730469 70.484375 308.867188 C 73.046875 306.835938 73.027344 311.398438 72.5 312.746094 C 73.832031 311.824219 76.03125 310.746094 77.175781 309.273438 C 77.679688 308.460938 78.015625 306.484375 78.234375 305.527344 C 79.019531 301.828125 77.402344 303.367188 81.027344 303.773438" fill="#a8a8a8"/></g><g id="change6_1"><path d="M 79.722656 150.550781 C 79.886719 143.066406 80.835938 141.265625 80.34375 135.074219 C 80.328125 134.839844 79.34375 124.863281 79.667969 122.375 C 80.652344 114.898438 88.699219 115.640625 97.15625 116.382812 C 104.105469 116.992188 111.332031 117.605469 115.148438 113.660156 C 123.101562 105.433594 130.804688 91.96875 144.863281 89.769531 C 165.777344 86.496094 149.671875 64.847656 193.050781 75.714844 C 212.875 67.042969 224.175781 68.785156 234.335938 65.128906 C 230.570312 56.496094 225.820312 32.429688 209.082031 25.273438 C 205.136719 23.589844 200.921875 18.847656 193.253906 14.261719 C 183.554688 8.464844 180.816406 7.203125 177.109375 4.421875 C 167.03125 -3.140625 93.71875 3.097656 74.691406 19.546875 C 70.226562 23.40625 39.660156 60.664062 36.371094 65.8125 C -5.796875 131.738281 41.324219 229.324219 43.570312 246.460938 C 44.480469 253.417969 52.167969 256.449219 52.015625 244.640625 C 51.789062 227.25 56.867188 221.03125 60.539062 203.949219 C 63.351562 190.859375 71.945312 183.960938 73.886719 170.371094 C 75.261719 160.738281 79.527344 159.519531 79.722656 150.550781" fill="#b70000"/></g><g id="change7_1"><path d="M 51.257812 233.796875 C 49.835938 222.886719 46.855469 194.867188 45.484375 177.367188 C 43.1875 147.941406 29.484375 107.921875 67.480469 51.484375 C 74.855469 40.53125 82.449219 30.554688 94.820312 26.582031 C 104.199219 35.226562 76.808594 40.300781 63.542969 80.320312 C 61.175781 87.457031 60.480469 105.542969 61.308594 120.234375 C 56.320312 124.449219 52.148438 129.21875 50.078125 133.40625 C 51.273438 132.546875 52.507812 132.261719 53.796875 132.261719 C 55.535156 132.261719 57.367188 132.78125 59.335938 133.089844 C 51.628906 140.582031 48.089844 152.128906 48.171875 162.878906 C 50.097656 158.652344 54.910156 155.917969 55.972656 155.78125 C 53.308594 164.210938 53.601562 179.632812 58.382812 187.070312 C 58.015625 183.933594 62.285156 175.15625 64.558594 172.96875 C 66.671875 174.039062 68.480469 176.0625 69.703125 178.394531 C 66.507812 187.253906 54.507812 213.410156 51.257812 233.796875" fill="#a10000"/></g><g id="change8_1"><path d="M 47.917969 252.214844 C 46.839844 252.214844 45.777344 250.539062 45.300781 247.8125 C 42.816406 233.652344 6.558594 143.941406 26.433594 91.066406 C 34.722656 69.019531 39.273438 62.835938 56.050781 43 C 58.28125 40.363281 60.222656 38.015625 61.933594 35.921875 C 62.042969 35.796875 62.152344 35.671875 62.257812 35.542969 C 69.351562 27.289062 73.941406 21.476562 80.0625 17.140625 C 82.675781 15.71875 85.933594 14.40625 90.609375 12.691406 C 107.269531 6.59375 131.675781 2.472656 151.558594 2.472656 C 163.082031 2.472656 173.082031 3.855469 179.175781 7.042969 C 180.886719 7.9375 186.414062 11.425781 191.730469 14.980469 C 197.660156 20.316406 202.464844 26.582031 203.792969 32.082031 C 205.644531 39.746094 202.292969 45.027344 195.835938 48.878906 C 190.898438 49.941406 186.308594 51.640625 182.84375 54.054688 C 181.441406 54.441406 179.996094 54.8125 178.511719 55.164062 C 178.023438 55.144531 177.535156 55.136719 177.046875 55.136719 C 171.75 55.136719 166.460938 56.222656 161.164062 57.3125 C 155.867188 58.398438 150.5625 59.484375 145.238281 59.484375 C 140.894531 59.484375 136.539062 58.761719 132.160156 56.722656 C 132.09375 58.121094 131.5625 60.753906 131.820312 63.308594 C 124.480469 64.828125 117.902344 66.667969 112.902344 69.203125 C 110.59375 70.371094 108.433594 70.882812 106.484375 70.882812 C 100.226562 70.882812 96.167969 65.601562 96.492188 59.867188 C 97.035156 50.359375 102.207031 35.625 103.183594 31.75 C 104.011719 28.46875 102.496094 24.78125 97.660156 24.78125 C 92.5 24.78125 83.5625 28.980469 69.660156 42.339844 C 61.976562 49.722656 44.140625 81.347656 41.121094 89.949219 C 32.464844 114.617188 34.265625 116.726562 33.820312 134.257812 C 33.105469 162.363281 45.863281 211.488281 49.671875 237.605469 C 50.160156 240.933594 50.382812 245.921875 50.035156 249.523438 C 49.449219 251.390625 48.679688 252.214844 47.917969 252.214844" fill="#cb0000"/></g><g id="change9_1"><path d="M 235.804688 60.878906 C 234.800781 55.546875 220.625 30.480469 212.84375 25.234375 C 198.191406 15.363281 192.367188 10.070312 181.398438 3.796875 C 172.925781 -1.054688 160.582031 0.0546875 150.617188 0.242188 C 66.152344 1.839844 66.300781 25.386719 51.136719 42.378906 C -2.5625 102.550781 17.230469 148.628906 23.730469 185.339844 C 26.285156 199.757812 42.230469 251.546875 42.382812 251.785156 C 44.710938 255.476562 46.597656 255.410156 47.128906 255.347656 C 47.320312 255.324219 47.332031 255.300781 47.117188 255.460938 C 56.914062 257.152344 54.296875 246.707031 54.960938 239.460938 C 56.566406 221.941406 60.714844 222.101562 63.582031 207.007812 C 66.136719 193.574219 72.871094 187.386719 75.101562 177.558594 C 78.480469 162.683594 82.984375 160.050781 82.183594 160.148438 C 93.28125 108.078125 74.113281 158.011719 70.433594 176.050781 C 69.324219 181.480469 52.867188 215.207031 50.679688 238.292969 C 50.371094 241.558594 50.652344 245.546875 50.191406 248.992188 C 48.800781 254.160156 46.144531 252.628906 45.300781 247.8125 C 42.816406 233.652344 6.558594 143.941406 26.433594 91.066406 C 34.722656 69.019531 39.273438 62.835938 56.050781 43 C 75.582031 19.90625 72.847656 19.195312 90.609375 12.691406 C 116.925781 3.058594 162.570312 -1.644531 179.175781 7.042969 C 182.113281 8.578125 196.3125 17.769531 201.378906 21.804688 C 210.984375 29.457031 213.171875 27.367188 231.867188 59.796875 C 232.472656 60.847656 232.566406 60.660156 232.671875 60.46875 C 232.734375 60.355469 232.800781 60.238281 232.988281 60.40625 C 233.34375 60.714844 233.535156 60.710938 233.730469 60.707031 C 233.8125 60.703125 233.894531 60.703125 233.992188 60.722656 C 235.789062 61.140625 236.113281 62.523438 235.804688 60.878906" fill="#780000"/></g><g id="change9_2"><path d="M 94.480469 26.46875 C 108.445312 31.203125 78.988281 43.566406 66.484375 75.996094 C 60.300781 92.027344 59.363281 123.296875 63.050781 136.898438 C 57.386719 141.898438 57.84375 128.832031 57.527344 121.527344 C 54.136719 42.925781 106.996094 36.5625 94.480469 26.46875" fill="#780000"/></g><g id="change1_2"><path d="M 254.648438 91.355469 C 247.75 91.605469 241.035156 86.472656 239.464844 79.75 C 242.34375 79.949219 245.132812 81.214844 247.183594 83.242188 C 247.570312 77.015625 243.980469 70.722656 238.425781 67.886719 C 242.195312 65.234375 245.359375 61.722656 247.601562 57.691406 C 240.636719 63.253906 230.738281 56.007812 224.402344 54.335938 C 221.632812 53.605469 216.828125 53.839844 214.246094 54.90625 C 215.5625 52.742188 217.4375 50.925781 219.640625 49.675781 C 207.601562 46.867188 182.953125 49.378906 177.519531 60.484375 L 193.59375 84.289062 C 198.613281 85.015625 203.722656 85.769531 208.316406 87.925781 C 212.910156 90.082031 217 93.890625 218.234375 98.8125 C 219.984375 95.265625 220.320312 91.042969 219.152344 87.261719 C 228.171875 96.460938 243.773438 98.257812 254.648438 91.355469" fill="#f8f8f8"/></g><g id="change2_4"><path d="M 221.6875 56.460938 C 226.375 57.480469 230.390625 60.488281 234.960938 61.949219 C 231.46875 62.757812 228.074219 63.964844 224.859375 65.542969 C 232.65625 66.746094 240.898438 63.914062 246.519531 58.414062 C 239.640625 62.515625 230.421875 55.921875 224.402344 54.335938 C 221.632812 53.605469 216.828125 53.839844 214.246094 54.90625 C 215.5625 52.742188 217.4375 50.925781 219.640625 49.675781 C 210.226562 47.480469 193.132812 48.558594 183.515625 54.4375 C 184.285156 55.027344 185.0625 55.605469 185.878906 56.132812 C 186.46875 56.515625 187.097656 56.886719 187.796875 56.96875 C 188.871094 57.09375 189.886719 56.511719 190.839844 56.003906 C 194.683594 53.945312 198.96875 52.714844 203.320312 52.417969 C 202.621094 53.339844 201.925781 54.265625 201.226562 55.1875 C 204.640625 54.691406 207.953125 53.511719 210.910156 51.738281 C 209.507812 53.789062 208.101562 55.835938 206.695312 57.886719 C 211.609375 56.636719 216.734375 55.386719 221.6875 56.460938" fill="#fff"/></g><g id="change3_2"><path d="M 218.238281 95.578125 C 216.429688 91.726562 212.96875 88.148438 207.496094 85.789062 C 208.410156 85.035156 209.046875 83.964844 209.308594 82.808594 C 209.851562 82.039062 210.34375 81.199219 210.773438 80.277344 C 210.476562 80.429688 210.171875 80.5625 209.863281 80.671875 L 209.859375 80.664062 C 209.726562 80.710938 209.59375 80.746094 209.457031 80.785156 C 209.453125 80.789062 209.449219 80.796875 209.445312 80.804688 C 209.421875 80.8125 209.398438 80.816406 209.378906 80.824219 C 209.375 80.8125 209.371094 80.796875 209.371094 80.785156 C 205.808594 80.664062 202.730469 78.382812 199.910156 76.199219 C 201.4375 76.613281 202.808594 76.75 204.105469 76.75 C 205.328125 76.75 206.488281 76.628906 207.652344 76.507812 C 208.816406 76.386719 209.992188 76.265625 211.242188 76.265625 C 214.488281 76.265625 218.257812 77.082031 223.796875 80.824219 C 225.078125 81.691406 228.085938 83.332031 229.351562 86.183594 C 228.492188 84.253906 228 79.605469 229.738281 77.621094 C 230.414062 80.757812 230.011719 87.460938 239.03125 91.316406 C 241.140625 92.21875 243.710938 92.464844 246.28125 92.464844 C 247.640625 92.464844 249 92.398438 250.292969 92.320312 C 247.078125 93.664062 243.484375 94.402344 239.765625 94.402344 C 233.074219 94.402344 225.980469 92.011719 219.96875 86.460938 C 219.695312 86.207031 219.398438 86.101562 219.121094 86.101562 C 218.398438 86.101562 217.800781 86.832031 218.058594 87.601562 C 218.925781 90.152344 218.933594 92.96875 218.238281 95.578125" fill="#dbdbdb"/></g><g clip-path="url(#b)" id="change5_4"><path d="M 254.609375 90.210938 C 248.03125 90.175781 243.035156 86.039062 241.140625 81.207031 C 243.351562 81.734375 245.085938 82.773438 246.40625 84.085938 C 247.101562 84.769531 248.300781 84.304688 248.324219 83.3125 C 248.488281 76.839844 245.566406 71.476562 241.175781 68.257812 C 244.769531 66.839844 248.234375 62.9375 248.636719 57.792969 C 248.707031 56.867188 247.660156 56.253906 246.886719 56.796875 C 241.933594 60.28125 237.007812 57.972656 231.4375 55.660156 C 227.203125 53.90625 222.59375 52.148438 217.320312 52.9375 C 218.183594 52.074219 219.160156 51.308594 220.246094 50.691406 C 221.171875 50.15625 220.960938 48.75 219.910156 48.519531 C 206.757812 45.648438 182.242188 48.550781 177.410156 60.429688 C 177.375 60.523438 177.472656 60.613281 177.5625 60.570312 C 184.777344 57.035156 191.46875 50.050781 208.277344 49.71875 C 212.808594 49.640625 215.53125 49.953125 217.164062 50.21875 C 214.820312 52.109375 214.171875 53.660156 213.789062 53.796875 C 214 54.046875 213.097656 54.425781 213.402344 55.226562 C 213.773438 56.203125 214.398438 55.742188 216.175781 55.277344 C 217.542969 54.921875 219.59375 54.566406 222.738281 54.867188 C 229.183594 55.671875 237.59375 62.621094 245.328125 59.792969 C 243.328125 62.714844 240.917969 65.105469 237.964844 67.226562 C 237.46875 67.585938 237.527344 68.324219 238.058594 68.601562 C 242.003906 70.640625 245.03125 74.582031 245.945312 79.570312 C 245.539062 79.222656 245.109375 78.902344 244.644531 78.648438 C 241.757812 77.136719 240.316406 78.152344 238.703125 79.398438 C 237.472656 80.347656 241.777344 90.011719 250.820312 92.09375 C 241.765625 96.121094 229.503906 95.265625 219.96875 86.460938 C 218.980469 85.542969 217.699219 86.539062 218.058594 87.601562 C 218.925781 90.152344 218.933594 92.96875 218.238281 95.578125 C 215.835938 90.46875 210.523438 85.832031 201.460938 83.894531 C 196.191406 82.785156 192.535156 84.230469 193.5625 84.476562 C 200.246094 86.082031 214.300781 87.757812 217.117188 99.09375 C 217.386719 100.140625 218.800781 100.28125 219.269531 99.320312 C 220.515625 96.800781 221.113281 93.957031 220.996094 91.144531 C 229.558594 99.75 248.324219 102.09375 255.511719 91.972656 C 256.027344 91.246094 255.519531 90.214844 254.609375 90.210938" fill="#a8a8a8"/></g><g id="change1_3"><path d="M 210.773438 80.277344 C 205.355469 83.066406 197.746094 78.425781 197.75 72.328125 L 190.859375 58.308594 C 180.933594 53.246094 171.0625 55.277344 161.164062 57.3125 C 151.546875 59.285156 141.902344 61.257812 132.160156 56.722656 C 132.039062 59.246094 130.40625 65.789062 134.636719 68.652344 C 119.683594 67.964844 103.308594 67.253906 96.878906 85.726562 C 98.070312 84.007812 102.339844 84.527344 104.398438 84.171875 C 104.046875 104.113281 82.898438 91.621094 74.835938 102.773438 C 79.839844 103.382812 80.996094 105.121094 83.917969 108.859375 C 72.582031 109.617188 55.105469 123.222656 50.078125 133.40625 C 52.890625 131.382812 55.910156 132.550781 59.335938 133.089844 C 51.628906 140.582031 48.089844 152.128906 48.171875 162.878906 C 50.097656 158.652344 54.910156 155.917969 55.972656 155.78125 C 53.308594 164.210938 53.601562 179.632812 58.382812 187.070312 C 58.015625 183.933594 62.285156 175.15625 64.558594 172.96875 C 70.257812 175.855469 73.746094 185.679688 69.507812 189.773438 C 84.328125 179.601562 87.257812 175.308594 89.644531 158.972656 C 92.492188 163.109375 93.71875 163.710938 98.574219 165.003906 C 94.335938 151.359375 100.976562 141.15625 108.730469 134.886719 C 110.628906 138.953125 111.113281 141.410156 108.542969 145.09375 C 118.773438 138.0625 127.277344 129.890625 130.96875 118.042969 C 142.117188 120.65625 151.519531 115.726562 160.914062 109.179688 C 158.75 109.417969 156.464844 109.640625 154.480469 108.742188 C 142.808594 103.4375 168.707031 88.8125 187.269531 99.941406 C 186.832031 96.457031 186.1875 92.964844 182.277344 90.699219 C 193.222656 91.066406 205.878906 90.742188 210.773438 80.277344" fill="#f8f8f8"/></g><g id="change3_3"><path d="M 69.507812 189.773438 C 70.398438 188.914062 72.566406 186.800781 72.828125 185.550781 C 80.753906 177.351562 80.964844 167.566406 82.53125 161.445312 C 81.226562 162.410156 79.601562 162.921875 77.976562 162.921875 C 77.238281 162.921875 76.5 162.816406 75.792969 162.597656 C 82.542969 160.199219 86.316406 153.070312 88.574219 146.269531 C 89.164062 150 89.386719 152.480469 89.824219 156.230469 C 89.941406 157.226562 88.960938 159.574219 89.402344 160.515625 C 87.046875 175.5625 83.839844 179.9375 69.507812 189.773438" fill="#dbdbdb"/></g><g id="change4_3"><path d="M 98.574219 165.003906 C 98.511719 164.988281 98.449219 164.972656 98.386719 164.953125 C 98.449219 164.972656 98.511719 164.988281 98.574219 165.003906" fill="#e1e1e1"/></g><g id="change10_1"><path d="M 209.445312 80.804688 C 209.449219 80.796875 209.453125 80.789062 209.457031 80.785156 C 209.59375 80.746094 209.726562 80.710938 209.859375 80.664062 L 209.863281 80.671875 C 209.726562 80.71875 209.585938 80.765625 209.445312 80.804688" fill="#c1c1c1"/></g><g id="change3_4"><path d="M 98.574219 165.003906 C 98.511719 164.988281 98.449219 164.972656 98.386719 164.953125 C 98.035156 164.859375 97.722656 164.769531 97.402344 164.679688 C 96.808594 163.425781 96.316406 162.121094 95.921875 160.808594 C 91.355469 145.523438 98.785156 127.535156 112.808594 119.929688 C 112.21875 123.316406 111.878906 126.75 111.789062 130.1875 C 115.277344 127.613281 118.328125 124.449219 120.78125 120.875 C 121.453125 119.898438 122.097656 118.835938 122.191406 117.65625 C 122.335938 115.808594 121.066406 114.078125 119.46875 113.136719 C 117.875 112.191406 115.996094 111.875 114.167969 111.578125 C 117.617188 110.609375 121.203125 110.117188 124.789062 110.117188 C 127.023438 110.117188 129.261719 110.308594 131.464844 110.691406 C 135.644531 111.414062 139.894531 112.816406 144.058594 112.816406 C 145.410156 112.816406 146.757812 112.667969 148.085938 112.300781 C 145.476562 111.328125 143.480469 108.871094 143.0625 106.117188 C 142.644531 103.363281 143.824219 100.421875 146.03125 98.722656 C 145.800781 98.710938 145.570312 98.703125 145.339844 98.703125 C 142.503906 98.703125 139.675781 99.582031 137.34375 101.195312 C 140.851562 95.171875 147.148438 91.148438 153.832031 89.164062 C 158.894531 87.65625 164.191406 87.214844 169.492188 87.214844 C 171.183594 87.214844 172.878906 87.261719 174.558594 87.328125 C 173.417969 85.714844 172.277344 84.097656 171.132812 82.480469 C 178.070312 84.8125 185.390625 86.003906 192.707031 86.003906 C 194.511719 86.003906 196.316406 85.929688 198.113281 85.785156 C 202.378906 85.441406 207.109375 84.324219 209.445312 80.804688 C 209.585938 80.765625 209.726562 80.71875 209.863281 80.671875 L 210.242188 81.253906 C 205.753906 89.40625 196.128906 90.785156 186.792969 90.785156 C 185.273438 90.785156 183.761719 90.75 182.277344 90.699219 C 186.1875 92.964844 186.832031 96.457031 187.269531 99.941406 C 182.382812 97.011719 176.988281 95.867188 171.902344 95.867188 C 161.023438 95.867188 151.566406 101.109375 151.5625 105.324219 C 151.5625 106.621094 152.457031 107.820312 154.480469 108.742188 C 155.570312 109.234375 156.75 109.390625 157.953125 109.390625 C 158.9375 109.390625 159.9375 109.285156 160.914062 109.179688 C 153.277344 114.503906 145.636719 118.757812 137.054688 118.757812 C 135.078125 118.757812 133.054688 118.53125 130.96875 118.042969 C 127.277344 129.890625 118.773438 138.0625 108.542969 145.09375 C 109.785156 143.308594 110.316406 141.8125 110.3125 140.28125 C 110.3125 138.652344 109.710938 136.980469 108.730469 134.886719 C 102.648438 139.800781 97.253906 147.140625 97.253906 156.65625 C 97.253906 159.277344 97.660156 162.058594 98.574219 165.003906" fill="#dbdbdb"/></g><g id="change2_5"><path d="M 188.519531 58.339844 C 187.753906 57.53125 186.847656 56.863281 185.863281 56.339844 C 167.988281 51.144531 150.242188 65.140625 132.160156 56.722656 C 132.066406 58.660156 131.09375 62.960938 132.554688 66.152344 C 139.5625 69.6875 147.847656 70.738281 155.453125 68.746094 C 151.785156 68.527344 148.222656 66.914062 145.636719 64.304688 C 155.230469 64.039062 164.796875 62.671875 174.078125 60.238281 C 178.816406 58.996094 183.699219 57.464844 188.519531 58.339844" fill="#fff"/></g><g id="change2_6"><path d="M 96.878906 85.726562 C 98.070312 84.007812 102.339844 84.527344 104.398438 84.171875 C 104.046875 104.113281 82.898438 91.621094 74.835938 102.773438 C 79.839844 103.382812 80.996094 105.121094 83.917969 108.859375 C 72.582031 109.617188 55.105469 123.222656 50.078125 133.40625 C 52.890625 131.382812 55.910156 132.550781 59.335938 133.089844 C 51.628906 140.582031 48.089844 152.128906 48.171875 162.878906 C 49.433594 160.109375 51.921875 158 53.796875 156.824219 C 56.128906 150.3125 59.234375 144.117188 63.804688 138.976562 C 60.601562 140.003906 57.90625 142.507812 56.644531 145.625 C 57.316406 141.089844 58.394531 136.613281 59.867188 132.269531 C 59.722656 132.367188 60.847656 132.417969 60.707031 132.523438 C 60.421875 131.46875 57.472656 130.398438 56.828125 129.519531 C 63.003906 122.65625 70.515625 120.871094 81.46875 120.289062 C 79.03125 118.796875 73.582031 118.652344 71.433594 118.933594 C 74.570312 113.445312 80.320312 114.933594 84.378906 110.378906 L 84.441406 110.523438 C 86.851562 108.859375 87.96875 105.542969 87.058594 102.761719 C 91.367188 103.25 95.746094 103.734375 100.023438 103.023438 C 104.300781 102.308594 108.546875 100.222656 110.890625 96.574219 C 108.316406 98.152344 105.222656 98.867188 102.21875 98.570312 C 105.066406 97.136719 107.121094 94.238281 107.535156 91.078125 C 107.925781 88.109375 106.839844 85.003906 104.730469 82.878906 C 111.84375 80.449219 119.726562 80.632812 127.3125 80.984375 C 122.953125 77.816406 117.34375 76.425781 112.011719 77.191406 C 119.152344 74.152344 126.527344 71.667969 134.050781 69.761719 C 133.269531 69.316406 132.46875 68.90625 131.65625 68.523438 C 117.5625 67.957031 102.882812 68.476562 96.878906 85.726562" fill="#fff"/></g><g id="change5_1"><path d="M 210.726562 79.5625 C 209.402344 79.753906 208.320312 79.792969 206.585938 79.445312 C 199.574219 77.800781 198.144531 72.28125 197.839844 72.171875 C 197.117188 71.914062 196.808594 75.132812 197.875 77.300781 C 199.757812 81.40625 204.796875 83.507812 208.652344 82.300781 C 202.929688 89.933594 192.132812 89.824219 182.320312 89.457031 C 180.980469 89.410156 180.601562 91.089844 181.65625 91.777344 C 184.046875 93.199219 185.019531 95.097656 185.539062 97.492188 C 165.253906 87.585938 140.070312 103.832031 154.007812 110.15625 C 154.636719 110.421875 155.265625 110.597656 155.886719 110.710938 C 136.253906 123.042969 130.78125 113.542969 129.546875 117.597656 C 126.492188 127.484375 119.828125 134.757812 111.75 140.917969 C 111.910156 138.847656 111.234375 136.816406 110.082031 134.253906 C 109.671875 133.359375 108.546875 133.113281 107.808594 133.714844 C 98.460938 141.3125 94.015625 151.34375 96.488281 162.847656 C 95.632812 162.5625 94.867188 162.1875 94.183594 161.816406 C 88.808594 158.914062 91.121094 157.691406 89.867188 157.503906 C 89.050781 157.378906 88.292969 157.941406 88.167969 158.757812 C 85.871094 173.464844 83.703125 177.515625 72.828125 185.550781 C 73.207031 180.347656 69.890625 174.023438 65.230469 171.636719 C 64.464844 171.238281 63.820312 171.585938 63.523438 171.894531 C 61.683594 173.808594 59.160156 178.320312 57.820312 182.328125 C 55.140625 174.644531 55.269531 163.378906 57.394531 156.230469 C 57.78125 154.9375 56.75 154.105469 55.785156 154.304688 C 54.195312 154.628906 51.886719 156.058594 49.910156 158.027344 C 50.761719 149.179688 54.097656 140.261719 60.375 134.15625 C 61.257812 133.296875 60.78125 131.800781 59.566406 131.617188 C 57.628906 131.320312 55.53125 130.71875 53.425781 130.796875 C 56.605469 126.261719 61.296875 121.953125 65.429688 118.863281 C 78.046875 109.488281 83.644531 111.007812 84.867188 110.019531 C 85.503906 109.507812 85.601562 108.578125 85.089844 107.941406 C 82.46875 104.695312 81.152344 102.832031 77.726562 101.851562 C 85.308594 95.644531 101.535156 102.511719 105.210938 89.378906 C 105.777344 87.246094 105.9375 84.363281 105.871094 83.921875 C 105.777344 83.304688 105.195312 82.542969 104.144531 82.703125 C 102.914062 82.890625 101.226562 82.816406 99.617188 83.015625 C 106.066406 69.492188 118.621094 69.574219 134.566406 70.117188 C 136.078125 70.175781 136.695312 68.253906 135.457031 67.433594 C 132.894531 65.742188 133.035156 62.183594 133.355469 58.792969 C 142.585938 62.648438 151.742188 61.113281 161.898438 58.921875 C 172.980469 56.507812 178.867188 55.570312 190.789062 58.449219 C 190.953125 58.488281 191.0625 58.277344 190.933594 58.167969 C 176.25 45.589844 151.277344 63.679688 132.746094 55.460938 C 131.839844 55.066406 130.835938 55.691406 130.773438 56.65625 C 130.648438 59.167969 129.6875 63.589844 131.363281 67.019531 C 114.484375 66.34375 101.402344 68.488281 95.472656 85.234375 C 94.835938 87.015625 97.1875 88.089844 98.105469 86.574219 C 98.457031 85.996094 100.847656 85.894531 102.789062 85.789062 C 101.308594 101.652344 81.820312 90.382812 73.613281 101.925781 C 72.980469 102.839844 73.539062 104.113281 74.65625 104.253906 C 78.191406 104.695312 79.433594 105.675781 81.160156 107.78125 C 69.28125 110.273438 53.902344 122.597656 48.742188 132.746094 C 48.039062 134.15625 49.699219 135.539062 50.949219 134.617188 C 52.519531 133.46875 54.3125 133.671875 56.445312 134.070312 C 49.800781 141.753906 46.617188 152.523438 46.679688 162.890625 C 46.691406 164.480469 48.851562 164.9375 49.519531 163.515625 C 50.417969 161.601562 52.070312 159.863281 53.734375 158.648438 C 51.90625 167.808594 52.65625 180.703125 57.128906 187.875 C 57.949219 189.1875 59.972656 188.519531 59.867188 186.988281 C 59.691406 184.335938 62.746094 177.796875 64.878906 174.910156 C 69.28125 178.050781 71.5625 185.761719 68.472656 188.699219 C 67.148438 189.96875 68.851562 192.046875 70.347656 191.003906 C 84.425781 181.261719 88.070312 176.8125 90.566406 162.574219 C 92.546875 164.761719 94.207031 165.3125 98.191406 166.445312 C 99.273438 166.753906 100.363281 165.757812 99.996094 164.5625 C 96.714844 153.898438 100.214844 144.511719 108.152344 137.34375 C 110.34375 143.113281 105.941406 143.9375 107.316406 145.9375 C 107.78125 146.613281 108.710938 146.785156 109.386719 146.320312 C 119.488281 139.363281 127.957031 131.222656 131.917969 119.753906 C 142.929688 121.894531 152.480469 116.839844 161.765625 110.398438 C 163.042969 109.511719 162.277344 107.519531 160.75 107.695312 C 158.660156 107.941406 156.683594 108.078125 155.1875 107.421875 C 154.371094 107.070312 153.621094 106.558594 153.300781 106.066406 C 150.703125 102.050781 170.800781 91.746094 186.585938 101.085938 C 187.566406 101.667969 188.742188 100.867188 188.59375 99.773438 C 188.101562 96.164062 187.328125 94.050781 186.167969 92.496094 C 192.796875 93 201.390625 91.503906 206.464844 87.515625 C 209.933594 84.875 210.78125 81.878906 211.460938 80.597656 C 211.726562 80.089844 211.308594 79.476562 210.726562 79.5625" fill="#a8a8a8"/></g><g id="change5_2"><path d="M 88.574219 146.273438 C 89.265625 149.914062 88.167969 158.757812 88.167969 158.757812 L 89.28125 161.273438 L 90.710938 160.382812 C 90.726562 153.859375 88.574219 146.273438 88.574219 146.273438" fill="#a8a8a8"/></g></g></svg>